PathFileType	4	(X/Y/Z)	RBDS025\RBDS025runT25.trc
DataRate	CameraRate	NumFrames	NumMarkers	Units	OrigDataRate	OrigDataStartFrame	OrigNumFrames
150.000000	150.000000	5	33	mm	150.000000	3375	4500
Frame#	Time	L.ASIS			L.Heel.Bottom			L.Heel.Lateral			L.Heel.Top			L.Iliac.Crest			L.MT1			L.MT5			L.PSIS			L.Shank.Bottom.Lateral			L.Shank.Bottom.Medial			L.Shank.Top.Lateral			L.Shank.Top.Medial			L.Thigh.Bottom.Lateral			L.Thigh.Bottom.Medial			L.Thigh.Top.Lateral			L.Thigh.Top.Medial			R.ASIS			R.ASY			R.Heel.Bottom			R.Heel.Lateral			R.Heel.Top			R.Iliac.Crest			R.MT1			R.MT5			R.PSIS			R.Shank.Bottom.Lateral			R.Shank.Bottom.Medial			R.Shank.Top.Lateral			R.Shank.Top.Medial			R.Thigh.Bottom.Lateral			R.Thigh.Bottom.Medial			R.Thigh.Top.Lateral			R.Thigh.Top.Medial			
		X1	Y1	Z1	X2	Y2	Z2	X3	Y3	Z3	X4	Y4	Z4	X5	Y5	Z5	X6	Y6	Z6	X7	Y7	Z7	X8	Y8	Z8	X9	Y9	Z9	X10	Y10	Z10	X11	Y11	Z11	X12	Y12	Z12	X13	Y13	Z13	X14	Y14	Z14	X15	Y15	Z15	X16	Y16	Z16	X17	Y17	Z17	X18	Y18	Z18	X19	Y19	Z19	X20	Y20	Z20	X21	Y21	Z21	X22	Y22	Z22	X23	Y23	Z23	X24	Y24	Z24	X25	Y25	Z25	X26	Y26	Z26	X27	Y27	Z27	X28	Y28	Z28	X29	Y29	Z29	X30	Y30	Z30	X31	Y31	Z31	X32	Y32	Z32	X33	Y33	Z33	

3376	22.5	2155.854543985701	916.3450208264526	872.1012127651792	2099.352870622909	26.04689667756767	959.5798323943803	2122.512974794109	47.04874662851928	913.7523330746754	2108.989739343361	70.24181358630254	959.5689111366902	2081.449533657626	989.5103418421929	820.1992204751475	2311.859654036858	44.89854794913374	975.7773338921061	2271.495203987509	40.67086863516096	868.0427199409735	1993.769577375423	971.4846553925147	922.6523124601163	2187.618273454487	167.8589322540366	885.1434700963688	2137.697113195189	178.3092340924576	907.9883183855753	2191.033627295671	244.2962964919921	860.4750055050494	2142.105627922827	255.0916901932931	881.7421023452855	2183.76014141671	584.8266326117415	815.5946826978288	2124.780480983504	556.1834428823229	846.811309277494	2130.254465112558	678.6835888368022	801.2714326629763	2074.899790257944	653.0564954493041	834.2315079916701	2162.885130179441	905.7228034811919	1073.436783078253	1627.355062375523	180.0759382638514	1063.144216296322	1534.866549590362	339.244781994571	1012.044504286042	1554.057600968791	325.9363810385022	1059.480111585981	1579.590585345423	342.5358297568785	1019.612520745082	2119.122520388896	975.3213131604017	1113.027819495631	1604.7824119367	137.4547800968491	1016.951541753055	1568.293983071514	177.3173162233656	1114.529988616395	2003.119521985807	968.3861487884662	1025.412702151371	1693.124968077515	338.7194518659622	1093.157612487994	1679.318554090634	372.7188126383886	1057.246501195139	1765.453633917381	381.9779191601187	1103.625485996351	1747.018902940612	415.9778560765561	1066.937597894129	2000.819094284382	545.9240892047565	1120.576448918343	1945.016473007644	558.6469514050459	1077.367121076418	2009.413098737073	654.1689403662026	1139.092959955195	1955.190172572624	666.2325160193785	1099.491290232526	
3377	22.50666666666667	2154.388833842511	912.7405267428084	871.6084715583175	2082.846466847374	27.25270203746519	959.59970771063	2106.365641837975	48.15048409806418	913.8836543849301	2093.39531171011	71.36946374144608	959.8644790318815	2079.31360273107	984.5690291402685	820.1595560556735	2296.214682944418	41.85078082273021	976.3607763975268	2255.567748828155	39.72791769212741	868.2450347629849	1991.856160771767	966.3513989580961	923.2817810547989	2178.116710414854	166.7892494495875	885.9535670552768	2128.181725744066	179.3566366304107	907.7353449897671	2185.099551133972	242.9769956295004	861.0629938738356	2136.246042408537	255.843406531504	881.3265654867663	2185.219158379647	581.8985880620736	815.3140490773961	2126.524226429683	552.6312599911502	846.5429022675721	2130.69880495205	675.1666353502801	800.902385330979	2075.563995852713	648.9787257079067	833.871810228614	2162.171861481869	901.3152696038214	1073.045326619127	1631.545322466561	184.0846292027391	1065.158892881551	1542.708364470662	344.4124633466577	1010.9632053856	1561.379546909339	331.414118502767	1058.616265583975	1587.533933426775	346.7810465459883	1018.55023546329	2118.094611762548	969.2264705155466	1113.178607306953	1608.373733977317	141.1498598433575	1019.574250644033	1572.296870773912	183.4421093411139	1116.296235493031	2001.359643872316	962.3728413204892	1025.857596953229	1701.010900206522	340.7081281292938	1093.268564678514	1688.504177038189	374.7263856534614	1056.921847421666	1774.614531657521	381.7165153510208	1103.646160836942	1757.524471467701	415.8293074259941	1066.417540748101	2007.710528312168	539.023660948092	1120.913421342267	1952.031684058363	550.1576602877939	1077.29266697972	2013.736344572913	647.576382610324	1138.834135426551	1959.471229737061	658.1014055218401	1098.807561643464	
3378	22.51333333333334	2152.788532434116	909.234617853684	871.043448767811	2066.513210995329	28.39674505523082	959.5704516132	2090.257619104622	49.21998913770924	913.9154800975961	2077.705151573368	72.42784028634118	960.0244164449191	2076.857131298921	979.6704659772483	820.0856694468574	2280.38062335864	39.98035046632678	976.7011003691451	2239.549976145262	39.43682613376257	868.3161878672636	1989.855669268877	961.4234868440619	923.8384777672433	2168.163676231918	166.0232136429934	886.6059645303188	2118.328628230791	180.6602459298896	907.3898543890266	2178.621057770319	241.8381049906791	861.5527346109566	2129.95740499972	256.7174557316869	880.8688413312124	2185.885574569118	578.7540712140169	814.990585563316	2127.561584463425	549.0653082732936	846.5369411746293	2130.460199040039	671.5284720499433	800.4836946272733	2075.71569330826	644.9569394971518	833.7842707690477	2161.240380016194	897.1867861895338	1072.628861904113	1637.316951275672	187.7497333370849	1067.021263501164	1551.4429672674	348.8771817112043	1010.09202613744	1569.802941807535	336.219104354639	1057.898947084419	1596.345801263252	350.4579889368441	1017.568555889188	2116.750983517378	963.4492002388183	1113.289505182893	1613.581224486096	144.454246146927	1022.114892962285	1578.115175070123	188.9888578798498	1118.075546013529	1999.440994402251	956.7247808179164	1026.23558231238	1709.921581786753	342.3920606128043	1093.369788120793	1698.614957410245	376.4192678204733	1056.642447005831	1784.638526757503	381.2744629361961	1103.699720301722	1768.806570174593	415.4625559478842	1065.992887280427	2014.869475855417	532.6229150736532	1121.264453636111	1959.285891507811	542.1226450286722	1077.328377727448	2018.269518868522	641.4294542425054	1138.608513969856	1963.942741428186	650.3410376830521	1098.223113427196	
3379	22.52	2151.107317658983	905.8505960824318	870.4358528490261	2050.339942404837	29.43123607844608	959.5320278303898	2074.201456612904	50.21527862990546	913.9019578545987	2061.95636102544	73.37307898165292	960.1148795954759	2074.149459380445	974.8805071520659	819.9607813201811	2264.425516371727	39.0360100764178	976.8350864744735	2223.469250721612	39.60570160186336	868.2915959276523	1987.832693361772	956.7910392580632	924.2734658166146	2157.683504590771	165.4300436227292	887.1457093006496	2108.060391481676	182.0509368152586	907.0263549180912	2171.454573010764	240.759970667019	861.9817996181131	2123.090363950501	257.5583364415116	880.4334916426852	2185.607604203985	575.3514543945732	814.6694021734244	2127.685735706636	545.4826867139091	846.7808474884024	2129.486988746665	667.7807046070947	800.0672980029833	2075.241503438142	641.0406796882495	833.9650787700937	2160.100067533352	893.4061058468424	1072.212938169198	1644.649356636926	190.9915181150735	1068.676997384616	1560.915559570751	352.5854562511329	1009.530470461924	1579.213652751806	340.2817314735247	1057.412554192098	1605.879305980488	353.5319834192305	1016.74589477358	2115.049506661436	958.1445896256531	1113.366643614906	1620.353295560796	147.3012453243771	1024.51634524402	1585.734336657351	193.8305369556169	1119.862782416812	1997.417618985884	951.5564593721443	1026.507953513755	1719.766206011905	343.7433708438156	1093.460703408424	1709.537878956983	377.7858885350371	1056.420171302495	1795.439529455153	380.6652025462266	1103.77666429531	1780.752465399663	414.9105672283711	1065.669257578396	2022.306402487333	526.776137924452	1121.621448210526	1966.771443128131	534.59068867196	1077.476568360723	2022.987999471332	635.7717465727767	1138.427024511688	1968.577397032111	642.9964687482628	1097.765788130642	
3380	22.52666666666667	2149.395447234165	902.6127641267242	869.8246420629004	2034.274147769605	30.32786778503711	959.5224539237973	2058.175820684761	51.11117455592186	913.8975147432865	2046.155030957598	74.17976347170455	960.2023243743348	2071.290873699498	970.2710026024596	819.7657709167286	2248.384657662439	38.7332333892939	976.8188747670821	2207.325497070781	40.04550772216555	868.2142001941214	1985.845276310695	952.5411490898197	924.544198285898	2146.609511117602	164.8920780103758	887.6253302799327	2097.301329595075	183.3800946102614	906.7177762759773	2163.479647562273	239.6420665080996	862.3922142787447	2115.511338395396	258.23778955369	880.0815115222733	2184.289378822961	571.6899323292614	814.3894633232419	2126.738134367449	541.9010394936017	847.2250225967191	2127.773012296696	663.9652756607001	799.697687395002	2074.057984057316	637.2929331360364	834.372843436547	2158.770101860491	890.0284909646913	1071.824786226263	1653.490397321896	193.7304118907748	1070.085696650755	1570.976577660679	355.4833000977343	1009.350289156447	1589.481487722767	343.5360639773031	1057.221508118923	1615.990494917586	355.9686910210086	1016.15036906602	2112.970090725093	953.4383503545222	1113.418076196529	1628.624557985613	149.6238196493194	1026.727184636633	1595.09072983383	197.8467359315809	1121.644234449386	1995.343272318127	946.9559389272271	1026.640471708602	1730.438314736614	344.7378806949507	1093.544233336411	1721.145142626429	378.8134788834511	1056.265882939655	1806.915449825896	379.9076854140947	1103.867934604709	1793.233756475689	414.2078567094112	1065.4471008973	2030.031609242729	521.5310964406879	1121.97939315446	1974.486289842297	527.6041923438155	1077.737028774779	2027.870761567948	630.6385593595456	1138.298690928796	1973.355670550239	636.1061139367539	1097.456703308909	
